ISO-10303-21;
HEADER;
FILE_DESCRIPTION((''),'2;1');
FILE_NAME('ANJIANMAO','2025-09-17T11:36:32',('seeed'),(''),
'CREO PARAMETRIC BY PTC INC, 2021284','CREO PARAMETRIC BY PTC INC, 2021284','');
FILE_SCHEMA(('CONFIG_CONTROL_DESIGN'));
ENDSEC;
DATA;
#1=DIRECTION('',(9.299405690045E-11,1.E0,-1.732870202905E-7));
#2=VECTOR('',#1,1.999999999978E0);
#3=CARTESIAN_POINT('',(-1.744095195989E1,-5.199953338501E0,2.176368087989E1));
#4=LINE('',#3,#2);
#5=DIRECTION('',(-6.725109358775E-11,-1.E0,1.732869758923E-7));
#6=VECTOR('',#5,1.999999999854E0);
#7=CARTESIAN_POINT('',(-1.844155770341E1,-3.199953165433E0,2.276307442248E1));
#8=LINE('',#7,#6);
#9=CARTESIAN_POINT('',(-1.854095175797E1,-3.099953338623E0,2.176301399600E1));
#10=DIRECTION('',(9.999998164261E-1,9.491708427174E-11,6.059272674488E-4));
#11=DIRECTION('',(1.008260142046E-11,1.E0,-1.732896457445E-7));
#12=AXIS2_PLACEMENT_3D('',#9,#10,#11);
#14=CARTESIAN_POINT('',(-1.854095175797E1,-3.199953338819E0,2.176301401333E1));
#15=DIRECTION('',(-6.059272674488E-4,1.732866270503E-7,9.999998164260E-1));
#16=DIRECTION('',(9.999998164261E-1,2.848743462846E-10,6.059272674494E-4));
#17=AXIS2_PLACEMENT_3D('',#14,#15,#16);
#19=CARTESIAN_POINT('',(-1.844095177613E1,-3.199953338780E0,2.176307460605E1));
#20=DIRECTION('',(-2.852161530396E-10,1.E0,-1.732868316815E-7));
#21=DIRECTION('',(-6.059272830415E-4,1.732866272701E-7,9.999998164260E-1));
#22=AXIS2_PLACEMENT_3D('',#19,#20,#21);
#24=CARTESIAN_POINT('',(-2.854094992222E1,-3.099953339676E0,2.175695472332E1));
#25=DIRECTION('',(9.999998164261E-1,1.049993312582E-10,6.059272674206E-4));
#26=DIRECTION('',(0.E0,1.E0,-1.732870380522E-7));
#27=AXIS2_PLACEMENT_3D('',#24,#25,#26);
#29=DIRECTION('',(-9.999998164261E-1,-1.049998754610E-10,-6.059272674136E-4));
#30=VECTOR('',#29,1.E1);
#31=CARTESIAN_POINT('',(-1.854095175796E1,-2.099953338626E0,2.176301382271E1));
#32=LINE('',#31,#30);
#33=DIRECTION('',(9.999998164261E-1,1.049557774025E-10,6.059272674205E-4));
#34=VECTOR('',#33,9.999999999997E0);
#35=CARTESIAN_POINT('',(-2.854155584949E1,-3.099953166387E0,2.275695453975E1));
#36=LINE('',#35,#34);
#37=CARTESIAN_POINT('',(-2.864094990387E1,-3.199953339688E0,2.175689414793E1));
#38=DIRECTION('',(-4.850473105867E-11,1.E0,-1.732863685072E-7));
#39=DIRECTION('',(-9.999998164261E-1,-1.535038762772E-10,-6.059272699532E-4));
#40=AXIS2_PLACEMENT_3D('',#37,#38,#39);
#42=CARTESIAN_POINT('',(-2.854094992223E1,-3.199953339673E0,2.175695474065E1));
#43=DIRECTION('',(-6.059272670793E-4,1.732863073060E-7,9.999998164260E-1));
#44=DIRECTION('',(2.364169466262E-12,1.E0,-1.732863388140E-7));
#45=AXIS2_PLACEMENT_3D('',#42,#43,#44);
#47=CARTESIAN_POINT('',(-2.864094990404E1,-5.199953339731E0,2.175689449449E1));
#48=DIRECTION('',(9.298128512006E-11,1.E0,-1.732864364319E-7));
#49=DIRECTION('',(-9.999998164261E-1,-1.201794219688E-11,-6.059272602203E-4));
#50=AXIS2_PLACEMENT_3D('',#47,#48,#49);
#52=DIRECTION('',(-9.299760961415E-11,-1.E0,1.732869847634E-7));
#53=VECTOR('',#52,1.999999999978E0);
#54=CARTESIAN_POINT('',(-2.964094972029E1,-3.199953339801E0,2.175628822066E1));
#55=LINE('',#54,#53);
#56=DIRECTION('',(8.097700288654E-11,1.E0,-1.732867964797E-7));
#57=VECTOR('',#56,1.999999999861E0);
#58=CARTESIAN_POINT('',(-2.864155583131E1,-5.199953166295E0,2.275689431092E1));
#59=LINE('',#58,#57);
#60=CARTESIAN_POINT('',(-2.854094992222E1,-5.299953339678E0,2.175695510456E1));
#61=DIRECTION('',(-9.999998164261E-1,-1.037613055272E-10,-6.059272669941E-4));
#62=DIRECTION('',(-1.236344360226E-12,-1.E0,1.732843877282E-7));
#63=AXIS2_PLACEMENT_3D('',#60,#61,#62);
#65=CARTESIAN_POINT('',(-2.854094992222E1,-5.199953339483E0,2.175695508723E1));
#66=DIRECTION('',(-6.059272669941E-4,1.732876218101E-7,9.999998164260E-1));
#67=DIRECTION('',(-9.999998164261E-1,-2.839223805061E-10,-6.059272669946E-4));
#68=AXIS2_PLACEMENT_3D('',#65,#66,#67);
#70=CARTESIAN_POINT('',(-1.854095175798E1,-5.299953338803E0,2.176301437723E1));
#71=DIRECTION('',(-9.999998164261E-1,-8.729189574148E-11,-6.059272674270E-4));
#72=DIRECTION('',(-1.770672497514E-11,-1.E0,1.732870060778E-7));
#73=AXIS2_PLACEMENT_3D('',#70,#71,#72);
#75=DIRECTION('',(9.999998164261E-1,8.728893163838E-11,6.059272674246E-4));
#76=VECTOR('',#75,9.999999999995E0);
#77=CARTESIAN_POINT('',(-2.854094992222E1,-6.299953339676E0,2.175695527784E1));
#78=LINE('',#77,#76);
#79=DIRECTION('',(-9.999998164261E-1,-9.216272189976E-11,-6.059272674226E-4));
#80=VECTOR('',#79,9.999999999875E0);
#81=CARTESIAN_POINT('',(-1.854155768534E1,-5.299953165508E0,2.276301419365E1));
#82=LINE('',#81,#80);
#83=CARTESIAN_POINT('',(-1.844095177632E1,-5.199953338608E0,2.176307495263E1));
#84=DIRECTION('',(4.168486436200E-11,-1.E0,1.732879346746E-7));
#85=DIRECTION('',(9.999998164261E-1,1.466844423707E-10,6.059272649297E-4));
#86=AXIS2_PLACEMENT_3D('',#83,#84,#85);
#88=CARTESIAN_POINT('',(-1.854095175814E1,-5.199953338623E0,2.176301435990E1));
#89=DIRECTION('',(-6.059272679888E-4,1.732878776055E-7,9.999998164260E-1));
#90=DIRECTION('',(1.705431755134E-10,-1.E0,1.732880117904E-7));
#91=AXIS2_PLACEMENT_3D('',#88,#89,#90);
#93=DIRECTION('',(-6.059272778379E-4,1.732916269538E-7,9.999998164260E-1));
#94=VECTOR('',#93,3.000000000350E0);
#95=CARTESIAN_POINT('',(-1.743913417806E1,-5.199953858376E0,1.876368143027E1));
#96=LINE('',#95,#94);
#97=CARTESIAN_POINT('',(-2.853913214041E1,-5.199953859344E0,1.875695563760E1));
#98=DIRECTION('',(-6.059272674204E-4,1.732869894271E-7,9.999998164260E-1));
#99=DIRECTION('',(-9.999998164261E-1,-2.839409515094E-10,-6.059272674210E-4));
#100=AXIS2_PLACEMENT_3D('',#97,#98,#99);
#102=DIRECTION('',(-9.999998164261E-1,-8.728848754905E-11,-6.059272674205E-4));
#103=VECTOR('',#102,1.000000000001E1);
#104=CARTESIAN_POINT('',(-1.853913397615E1,-6.299953858664E0,1.876301510089E1));
#105=LINE('',#104,#103);
#106=CARTESIAN_POINT('',(-1.853913397634E1,-5.199953858484E0,1.876301491027E1));
#107=DIRECTION('',(-6.059272674204E-4,1.732869894271E-7,9.999998164260E-1));
#108=DIRECTION('',(1.704042967060E-10,-1.E0,1.732871236120E-7));
#109=AXIS2_PLACEMENT_3D('',#106,#107,#108);
#111=DIRECTION('',(-6.200195912213E-11,-1.E0,1.732869812080E-7));
#112=VECTOR('',#111,2.000000000009E0);
#113=CARTESIAN_POINT('',(-1.743913417794E1,-3.199953858366E0,1.876368108369E1));
#114=LINE('',#113,#112);
#115=CARTESIAN_POINT('',(-1.853913397617E1,-3.199953858680E0,1.876301456370E1));
#116=DIRECTION('',(6.059272674204E-4,-1.732869894271E-7,-9.999998164260E-1));
#117=DIRECTION('',(6.566060825212E-12,1.E0,-1.732870170285E-7));
#118=AXIS2_PLACEMENT_3D('',#115,#116,#117);
#120=DIRECTION('',(9.999998164261E-1,1.049998310521E-10,6.059272674207E-4));
#121=VECTOR('',#120,1.E1);
#122=CARTESIAN_POINT('',(-2.853913214042E1,-2.099953859537E0,1.875695510041E1));
#123=LINE('',#122,#121);
#124=CARTESIAN_POINT('',(-2.853913214042E1,-3.199953859534E0,1.875695529102E1));
#125=DIRECTION('',(6.059272674204E-4,-1.732869894271E-7,-9.999998164260E-1));
#126=DIRECTION('',(-9.999998164261E-1,-1.030319264252E-10,-6.059272674216E-4));
#127=AXIS2_PLACEMENT_3D('',#124,#125,#126);
#129=DIRECTION('',(7.751310704371E-11,1.E0,-1.732869741025E-7));
#130=VECTOR('',#129,2.000000000009E0);
#131=CARTESIAN_POINT('',(-2.963913193864E1,-5.199953859657E0,1.875628911760E1));
#132=LINE('',#131,#130);
#133=CARTESIAN_POINT('',(-3.093913169984E1,-1.499953859789E0,1.875550077099E1));
#134=DIRECTION('',(-6.059272674204E-4,1.732869894172E-7,9.999998164260E-1));
#135=DIRECTION('',(-1.065814103640E-14,1.E0,-1.732870202886E-7));
#136=AXIS2_PLACEMENT_3D('',#133,#134,#135);
#138=CARTESIAN_POINT('',(-1.613913441674E1,-1.499953858235E0,1.876446849455E1));
#139=DIRECTION('',(-6.059272674204E-4,1.732869894172E-7,9.999998164260E-1));
#140=DIRECTION('',(9.999998164261E-1,1.049911269035E-10,6.059272674221E-4));
#141=AXIS2_PLACEMENT_3D('',#138,#139,#140);
#143=CARTESIAN_POINT('',(-1.613913441674E1,-5.899953858235E0,1.876446925701E1));
#144=DIRECTION('',(-6.059272674203E-4,1.732869894340E-7,9.999998164260E-1));
#145=DIRECTION('',(0.E0,-1.E0,1.732870202886E-7));
#146=AXIS2_PLACEMENT_3D('',#143,#144,#145);
#148=DIRECTION('',(-9.999998164261E-1,-1.049992525358E-10,-6.059272674203E-4));
#149=VECTOR('',#148,1.48E1);
#150=CARTESIAN_POINT('',(-1.613913441674E1,-6.899953858235E0,1.876446943030E1));
#151=LINE('',#150,#149);
#152=CARTESIAN_POINT('',(-3.093913169984E1,-5.899953859789E0,1.875550153346E1));
#153=DIRECTION('',(-6.059272674205E-4,1.732869894340E-7,9.999998164260E-1));
#154=DIRECTION('',(-9.999998164261E-1,-1.049915709928E-10,-6.059272674221E-4));
#155=AXIS2_PLACEMENT_3D('',#152,#153,#154);
#157=DIRECTION('',(-6.059272667973E-4,1.732869912546E-7,9.999998164260E-1));
#158=VECTOR('',#157,3.000000000350E0);
#159=CARTESIAN_POINT('',(-2.853913214042E1,-6.299953859537E0,1.875695582821E1));
#160=LINE('',#159,#158);
#161=DIRECTION('',(-6.059272713601E-4,1.732869924388E-7,9.999998164260E-1));
#162=VECTOR('',#161,3.000000000350E0);
#163=CARTESIAN_POINT('',(-1.853913397615E1,-6.299953858664E0,1.876301510089E1));
#164=LINE('',#163,#162);
#165=DIRECTION('',(-6.059272777065E-4,1.732926847743E-7,9.999998164260E-1));
#166=VECTOR('',#165,3.000000000350E0);
#167=CARTESIAN_POINT('',(-2.963913193864E1,-5.199953859657E0,1.875628911760E1));
#168=LINE('',#167,#166);
#169=DIRECTION('',(-6.059272673835E-4,1.732821987919E-7,9.999998164260E-1));
#170=VECTOR('',#169,3.000000000350E0);
#171=CARTESIAN_POINT('',(-2.963913193849E1,-3.199953859647E0,1.875628877103E1));
#172=LINE('',#171,#170);
#173=DIRECTION('',(-6.059272674368E-4,1.732869986561E-7,9.999998164260E-1));
#174=VECTOR('',#173,3.000000000350E0);
#175=CARTESIAN_POINT('',(-2.853913214042E1,-2.099953859537E0,1.875695510041E1));
#176=LINE('',#175,#174);
#177=DIRECTION('',(-6.059272672153E-4,1.732869988041E-7,9.999998164260E-1));
#178=VECTOR('',#177,3.000000000350E0);
#179=CARTESIAN_POINT('',(-1.853913397616E1,-2.099953858487E0,1.876301437308E1));
#180=LINE('',#179,#178);
#181=DIRECTION('',(6.059272571766E-4,-1.732812537700E-7,-9.999998164260E-1));
#182=VECTOR('',#181,3.000000000350E0);
#183=CARTESIAN_POINT('',(-1.744095195971E1,-3.199953338523E0,2.176368053332E1));
#184=LINE('',#183,#182);
#185=CARTESIAN_POINT('',(-3.093852577258E1,-1.499954033076E0,1.775550095457E1));
#186=DIRECTION('',(6.059272674204E-4,-1.732869894172E-7,-9.999998164260E-1));
#187=DIRECTION('',(-9.999998164261E-1,-1.049986764201E-10,-6.059272674221E-4));
#188=AXIS2_PLACEMENT_3D('',#185,#186,#187);
#190=CARTESIAN_POINT('',(-3.093852577258E1,-5.899954033076E0,1.775550171703E1));
#191=DIRECTION('',(6.059272674205E-4,-1.732869894340E-7,-9.999998164260E-1));
#192=DIRECTION('',(0.E0,-1.E0,1.732870202886E-7));
#193=AXIS2_PLACEMENT_3D('',#190,#191,#192);
#195=CARTESIAN_POINT('',(-1.613852848947E1,-5.899954031522E0,1.776446944059E1));
#196=DIRECTION('',(6.059272674203E-4,-1.732869894340E-7,-9.999998164260E-1));
#197=DIRECTION('',(9.999998164261E-1,1.050004527769E-10,6.059272674186E-4));
#198=AXIS2_PLACEMENT_3D('',#195,#196,#197);
#200=CARTESIAN_POINT('',(-1.613852848947E1,-1.499954031522E0,1.776446867813E1));
#201=DIRECTION('',(6.059272674204E-4,-1.732869894172E-7,-9.999998164260E-1));
#202=DIRECTION('',(0.E0,1.E0,-1.732870202886E-7));
#203=AXIS2_PLACEMENT_3D('',#200,#201,#202);
#205=DIRECTION('',(-9.999998164261E-1,-1.049993125479E-10,-6.059272674208E-4));
#206=VECTOR('',#205,1.48E1);
#207=CARTESIAN_POINT('',(-1.613852848947E1,-4.999540315217E-1,
1.776446850484E1));
#208=LINE('',#207,#206);
#209=DIRECTION('',(-6.059272674221E-4,1.732869896465E-7,9.999998164260E-1));
#210=VECTOR('',#209,1.E0);
#211=CARTESIAN_POINT('',(-3.193852558900E1,-1.499954033181E0,1.775489502730E1));
#212=LINE('',#211,#210);
#213=DIRECTION('',(0.E0,-1.E0,1.732870202886E-7));
#214=VECTOR('',#213,4.4E0);
#215=CARTESIAN_POINT('',(-3.193913151627E1,-1.499953859894E0,1.875489484373E1));
#216=LINE('',#215,#214);
#217=DIRECTION('',(-6.059272674257E-4,1.732869900906E-7,9.999998164260E-1));
#218=VECTOR('',#217,1.E0);
#219=CARTESIAN_POINT('',(-3.193852558900E1,-5.899954033181E0,1.775489578976E1));
#220=LINE('',#219,#218);
#221=DIRECTION('',(0.E0,1.E0,-1.732870210961E-7));
#222=VECTOR('',#221,4.4E0);
#223=CARTESIAN_POINT('',(-3.193852558900E1,-5.899954033181E0,1.775489578976E1));
#224=LINE('',#223,#222);
#225=DIRECTION('',(-6.059272674293E-4,1.732869883142E-7,9.999998164260E-1));
#226=VECTOR('',#225,1.E0);
#227=CARTESIAN_POINT('',(-1.613852848947E1,-6.899954031522E0,1.776446961388E1));
#228=LINE('',#227,#226);
#229=DIRECTION('',(-9.999998164261E-1,-1.049993125479E-10,-6.059272674205E-4));
#230=VECTOR('',#229,1.48E1);
#231=CARTESIAN_POINT('',(-1.613852848947E1,-6.899954031522E0,1.776446961388E1));
#232=LINE('',#231,#230);
#233=DIRECTION('',(-6.059272674293E-4,1.732869892024E-7,9.999998164260E-1));
#234=VECTOR('',#233,1.E0);
#235=CARTESIAN_POINT('',(-3.093852577258E1,-6.899954033076E0,1.775550189032E1));
#236=LINE('',#235,#234);
#237=DIRECTION('',(-6.059272674221E-4,1.732869894244E-7,9.999998164260E-1));
#238=VECTOR('',#237,1.E0);
#239=CARTESIAN_POINT('',(-1.513852867304E1,-1.499954031417E0,1.776507460539E1));
#240=LINE('',#239,#238);
#241=DIRECTION('',(0.E0,-1.E0,1.732870219035E-7));
#242=VECTOR('',#241,4.4E0);
#243=CARTESIAN_POINT('',(-1.513852867304E1,-1.499954031417E0,1.776507460539E1));
#244=LINE('',#243,#242);
#245=DIRECTION('',(-6.059272674221E-4,1.732869909787E-7,9.999998164260E-1));
#246=VECTOR('',#245,1.E0);
#247=CARTESIAN_POINT('',(-1.513852867304E1,-5.899954031417E0,1.776507536786E1));
#248=LINE('',#247,#246);
#249=DIRECTION('',(0.E0,1.E0,-1.732870210961E-7));
#250=VECTOR('',#249,4.4E0);
#251=CARTESIAN_POINT('',(-1.513913460031E1,-5.899953858130E0,1.876507518428E1));
#252=LINE('',#251,#250);
#253=DIRECTION('',(-6.059272674257E-4,1.732869893689E-7,9.999998164260E-1));
#254=VECTOR('',#253,1.E0);
#255=CARTESIAN_POINT('',(-3.093852577258E1,-4.999540330757E-1,
1.775550078128E1));
#256=LINE('',#255,#254);
#257=DIRECTION('',(-6.059272674293E-4,1.732869894799E-7,9.999998164260E-1));
#258=VECTOR('',#257,1.E0);
#259=CARTESIAN_POINT('',(-1.613852848947E1,-4.999540315217E-1,
1.776446850484E1));
#260=LINE('',#259,#258);
#261=DIRECTION('',(-9.999998164261E-1,-1.049993200494E-10,-6.059272674205E-4));
#262=VECTOR('',#261,1.48E1);
#263=CARTESIAN_POINT('',(-1.613913441674E1,-4.999538582347E-1,
1.876446832126E1));
#264=LINE('',#263,#262);
#265=CARTESIAN_POINT('',(-2.854155584949E1,-3.199953166387E0,2.275695455708E1));
#266=DIRECTION('',(-6.059272670793E-4,1.732863073060E-7,9.999998164260E-1));
#267=DIRECTION('',(2.255973185943E-11,1.E0,-1.732863097386E-7));
#268=AXIS2_PLACEMENT_3D('',#265,#266,#267);
#270=CARTESIAN_POINT('',(-1.854155768524E1,-3.199953165532E0,2.276301382975E1));
#271=DIRECTION('',(-6.059272674488E-4,1.732866270503E-7,9.999998164260E-1));
#272=DIRECTION('',(9.999998164261E-1,2.662892123807E-10,6.059272674572E-4));
#273=AXIS2_PLACEMENT_3D('',#270,#271,#272);
#275=CARTESIAN_POINT('',(-1.854155768541E1,-5.199953165335E0,2.276301417632E1));
#276=DIRECTION('',(-6.059272679888E-4,1.732878776055E-7,9.999998164260E-1));
#277=DIRECTION('',(1.517364009355E-10,-1.E0,1.732880147217E-7));
#278=AXIS2_PLACEMENT_3D('',#275,#276,#277);
#280=CARTESIAN_POINT('',(-2.854155584948E1,-5.199953166196E0,2.275695490365E1));
#281=DIRECTION('',(-6.059272669941E-4,1.732876218101E-7,9.999998164260E-1));
#282=DIRECTION('',(-9.999998164261E-1,-2.655298198217E-10,-6.059272670042E-4));
#283=AXIS2_PLACEMENT_3D('',#280,#281,#282);
#285=CARTESIAN_POINT('',(-1.744095195989E1,-5.199953338501E0,2.176368087989E1));
#286=CARTESIAN_POINT('',(-1.744095195971E1,-3.199953338523E0,2.176368053332E1));
#287=VERTEX_POINT('',#285);
#288=VERTEX_POINT('',#286);
#289=CARTESIAN_POINT('',(-1.743913417806E1,-5.199953858376E0,1.876368143027E1));
#290=VERTEX_POINT('',#289);
#291=CARTESIAN_POINT('',(-1.743913417794E1,-3.199953858366E0,1.876368108369E1));
#292=VERTEX_POINT('',#291);
#293=CARTESIAN_POINT('',(-1.854095175795E1,-6.299953338803E0,2.176301455052E1));
#294=VERTEX_POINT('',#293);
#295=CARTESIAN_POINT('',(-1.853913397615E1,-6.299953858664E0,1.876301510089E1));
#296=VERTEX_POINT('',#295);
#297=CARTESIAN_POINT('',(-2.854094992222E1,-6.299953339676E0,2.175695527784E1));
#298=VERTEX_POINT('',#297);
#299=CARTESIAN_POINT('',(-2.853913214042E1,-6.299953859537E0,1.875695582821E1));
#300=VERTEX_POINT('',#299);
#301=CARTESIAN_POINT('',(-2.964094972048E1,-5.199953339796E0,2.175628856723E1));
#302=VERTEX_POINT('',#301);
#303=CARTESIAN_POINT('',(-2.963913193864E1,-5.199953859657E0,1.875628911760E1));
#304=VERTEX_POINT('',#303);
#305=CARTESIAN_POINT('',(-2.964094972029E1,-3.199953339801E0,2.175628822066E1));
#306=VERTEX_POINT('',#305);
#307=CARTESIAN_POINT('',(-2.963913193849E1,-3.199953859647E0,1.875628877103E1));
#308=VERTEX_POINT('',#307);
#309=CARTESIAN_POINT('',(-2.854094992222E1,-2.099953339676E0,2.175695455004E1));
#310=VERTEX_POINT('',#309);
#311=CARTESIAN_POINT('',(-2.853913214042E1,-2.099953859537E0,1.875695510041E1));
#312=VERTEX_POINT('',#311);
#313=CARTESIAN_POINT('',(-1.854095175796E1,-2.099953338626E0,2.176301382271E1));
#314=VERTEX_POINT('',#313);
#315=CARTESIAN_POINT('',(-1.853913397616E1,-2.099953858487E0,1.876301437308E1));
#316=VERTEX_POINT('',#315);
#317=CARTESIAN_POINT('',(-2.854155584949E1,-3.099953166383E0,2.275695453975E1));
#318=CARTESIAN_POINT('',(-2.864155583114E1,-3.199953166441E0,2.275689396435E1));
#319=VERTEX_POINT('',#317);
#320=VERTEX_POINT('',#318);
#321=CARTESIAN_POINT('',(-2.864155583131E1,-5.199953166295E0,2.275689431092E1));
#322=VERTEX_POINT('',#321);
#323=CARTESIAN_POINT('',(-2.854155584948E1,-5.299953166396E0,2.275695492098E1));
#324=VERTEX_POINT('',#323);
#325=CARTESIAN_POINT('',(-1.854155768534E1,-5.299953165508E0,2.276301419365E1));
#326=VERTEX_POINT('',#325);
#327=CARTESIAN_POINT('',(-1.844155770358E1,-5.199953165283E0,2.276307476905E1));
#328=VERTEX_POINT('',#327);
#329=CARTESIAN_POINT('',(-1.844155770341E1,-3.199953165433E0,2.276307442248E1));
#330=VERTEX_POINT('',#329);
#331=CARTESIAN_POINT('',(-1.854155768523E1,-3.099953165336E0,2.276301381242E1));
#332=VERTEX_POINT('',#331);
#333=CARTESIAN_POINT('',(-1.513852867304E1,-5.899954031417E0,1.776507536786E1));
#334=CARTESIAN_POINT('',(-1.613852848947E1,-6.899954031522E0,1.776446961388E1));
#335=VERTEX_POINT('',#333);
#336=VERTEX_POINT('',#334);
#337=CARTESIAN_POINT('',(-1.613913441674E1,-6.899953858235E0,1.876446943030E1));
#338=VERTEX_POINT('',#337);
#339=CARTESIAN_POINT('',(-1.513913460031E1,-5.899953858130E0,1.876507518428E1));
#340=VERTEX_POINT('',#339);
#341=CARTESIAN_POINT('',(-3.093852577258E1,-6.899954033076E0,1.775550189032E1));
#342=CARTESIAN_POINT('',(-3.193852558900E1,-5.899954033181E0,1.775489578976E1));
#343=VERTEX_POINT('',#341);
#344=VERTEX_POINT('',#342);
#345=CARTESIAN_POINT('',(-3.193913151627E1,-5.899953859894E0,1.875489560619E1));
#346=VERTEX_POINT('',#345);
#347=CARTESIAN_POINT('',(-3.093913169984E1,-6.899953859789E0,1.875550170674E1));
#348=VERTEX_POINT('',#347);
#349=CARTESIAN_POINT('',(-3.193852558900E1,-1.499954033181E0,1.775489502730E1));
#350=CARTESIAN_POINT('',(-3.093852577258E1,-4.999540330757E-1,
1.775550078128E1));
#351=VERTEX_POINT('',#349);
#352=VERTEX_POINT('',#350);
#353=CARTESIAN_POINT('',(-3.093913169984E1,-4.999538597887E-1,
1.875550059771E1));
#354=VERTEX_POINT('',#353);
#355=CARTESIAN_POINT('',(-3.193913151627E1,-1.499953859894E0,1.875489484373E1));
#356=VERTEX_POINT('',#355);
#357=CARTESIAN_POINT('',(-1.613852848947E1,-4.999540315217E-1,
1.776446850484E1));
#358=CARTESIAN_POINT('',(-1.513852867304E1,-1.499954031417E0,1.776507460539E1));
#359=VERTEX_POINT('',#357);
#360=VERTEX_POINT('',#358);
#361=CARTESIAN_POINT('',(-1.513913460031E1,-1.499953858130E0,1.876507442182E1));
#362=VERTEX_POINT('',#361);
#363=CARTESIAN_POINT('',(-1.613913441674E1,-4.999538582347E-1,
1.876446832126E1));
#364=VERTEX_POINT('',#363);
#365=CARTESIAN_POINT('',(-1.744004306890E1,-4.199953598441E0,2.026368098179E1));
#366=DIRECTION('',(9.999998164261E-1,1.200349800234E-11,6.059272674204E-4));
#367=DIRECTION('',(-9.299581618423E-11,-1.E0,1.732869648893E-7));
#368=AXIS2_PLACEMENT_3D('',#365,#366,#367);
#369=PLANE('',#368);
#371=ORIENTED_EDGE('',*,*,#370,.T.);
#373=ORIENTED_EDGE('',*,*,#372,.T.);
#375=ORIENTED_EDGE('',*,*,#374,.T.);
#377=ORIENTED_EDGE('',*,*,#376,.T.);
#378=EDGE_LOOP('',(#371,#373,#375,#377));
#379=FACE_OUTER_BOUND('',#378,.F.);
#380=ADVANCED_FACE('',(#379),#369,.T.);
#381=CARTESIAN_POINT('',(-1.844095177622E1,-4.199953338546E0,2.176307477934E1));
#382=DIRECTION('',(-9.299581107161E-11,-1.E0,1.732869564516E-7));
#383=DIRECTION('',(9.999998164261E-1,1.200349751467E-11,6.059272646062E-4));
#384=AXIS2_PLACEMENT_3D('',#381,#382,#383);
#385=CYLINDRICAL_SURFACE('',#384,9.999999999972E-1);
#387=ORIENTED_EDGE('',*,*,#386,.T.);
#388=ORIENTED_EDGE('',*,*,#370,.F.);
#390=ORIENTED_EDGE('',*,*,#389,.T.);
#392=ORIENTED_EDGE('',*,*,#391,.F.);
#393=EDGE_LOOP('',(#387,#388,#390,#392));
#394=FACE_OUTER_BOUND('',#393,.F.);
#395=ADVANCED_FACE('',(#394),#385,.T.);
#396=CARTESIAN_POINT('',(-1.744196890663E1,-3.234489679623E0,2.173226915827E1));
#397=CARTESIAN_POINT('',(-1.742302101414E1,-3.235096747309E0,2.234737568758E1));
#398=CARTESIAN_POINT('',(-1.785822240487E1,-3.221428201020E0,2.278226458594E1));
#399=CARTESIAN_POINT('',(-1.847300200238E1,-3.202107605726E0,2.276256193016E1));
#400=CARTESIAN_POINT('',(-1.742071529812E1,-2.558188763059E0,2.173228191922E1));
#401=CARTESIAN_POINT('',(-1.740139375151E1,-2.546905961332E0,2.234738867287E1));
#402=CARTESIAN_POINT('',(-1.784500669853E1,-2.800897526906E0,2.278227252082E1));
#403=CARTESIAN_POINT('',(-1.847167616320E1,-3.159918710918E0,2.276256272622E1));
#404=CARTESIAN_POINT('',(-1.789916826225E1,-2.079735711230E0,2.173199192856E1));
#405=CARTESIAN_POINT('',(-1.788825827198E1,-2.060041351620E0,2.234709358396E1));
#406=CARTESIAN_POINT('',(-1.814251353699E1,-2.503390633911E0,2.278209220173E1));
#407=CARTESIAN_POINT('',(-1.850152293892E1,-3.130071929730E0,2.276254463606E1));
#408=CARTESIAN_POINT('',(-1.857546905466E1,-2.100989323821E0,2.173158214307E1));
#409=CARTESIAN_POINT('',(-1.857644893162E1,-2.081668618412E0,2.234667659415E1));
#410=CARTESIAN_POINT('',(-1.856304413390E1,-2.516606342793E0,2.278183739302E1));
#411=CARTESIAN_POINT('',(-1.854371182598E1,-3.131397769166E0,2.276251907289E1));
#412=(BOUNDED_SURFACE()B_SPLINE_SURFACE(3,3,((#396,#397,#398,#399),(#400,#401,
#402,#403),(#404,#405,#406,#407),(#408,#409,#410,#411)),.UNSPECIFIED.,.F.,.F.,
.F.)B_SPLINE_SURFACE_WITH_KNOTS((4,4),(4,4),(0.E0,1.E0),(0.E0,1.E0),
.UNSPECIFIED.)GEOMETRIC_REPRESENTATION_ITEM()RATIONAL_B_SPLINE_SURFACE(((
1.409592795914E0,1.113152711287E0,1.113152711287E0,1.409592795914E0),(
1.113152711360E0,8.790545484607E-1,8.790545484607E-1,1.113152711360E0),(
1.113152711360E0,8.790545484607E-1,8.790545484607E-1,1.113152711360E0),(
1.409592795914E0,1.113152711287E0,1.113152711287E0,1.409592795914E0)))REPRESENTATION_ITEM('')SURFACE());
#414=ORIENTED_EDGE('',*,*,#413,.F.);
#416=ORIENTED_EDGE('',*,*,#415,.F.);
#417=ORIENTED_EDGE('',*,*,#386,.F.);
#419=ORIENTED_EDGE('',*,*,#418,.T.);
#420=EDGE_LOOP('',(#414,#416,#417,#419));
#421=FACE_OUTER_BOUND('',#420,.F.);
#422=ADVANCED_FACE('',(#421),#412,.T.);
#423=CARTESIAN_POINT('',(-2.354095084009E1,-3.099953339151E0,2.175998435966E1));
#424=DIRECTION('',(9.999998164261E-1,1.049993312582E-10,6.059272674206E-4));
#425=DIRECTION('',(0.E0,1.E0,-1.732870407780E-7));
#426=AXIS2_PLACEMENT_3D('',#423,#424,#425);
#427=CYLINDRICAL_SURFACE('',#426,1.E0);
#429=ORIENTED_EDGE('',*,*,#428,.F.);
#431=ORIENTED_EDGE('',*,*,#430,.F.);
#432=ORIENTED_EDGE('',*,*,#413,.T.);
#434=ORIENTED_EDGE('',*,*,#433,.F.);
#435=EDGE_LOOP('',(#429,#431,#432,#434));
#436=FACE_OUTER_BOUND('',#435,.F.);
#437=ADVANCED_FACE('',(#436),#427,.T.);
#438=CARTESIAN_POINT('',(-2.850639456023E1,-2.100989324865E0,2.172556472341E1));
#439=CARTESIAN_POINT('',(-2.850616008886E1,-2.081668619457E0,2.234065991029E1));
#440=CARTESIAN_POINT('',(-2.852009222814E1,-2.516606343832E0,2.277580414496E1));
#441=CARTESIAN_POINT('',(-2.853940111078E1,-3.131397770201E0,2.275646241109E1));
#442=CARTESIAN_POINT('',(-2.918269535266E1,-2.079735712390E0,2.172515493056E1));
#443=CARTESIAN_POINT('',(-2.919435074852E1,-2.060041352783E0,2.234024291298E1));
#444=CARTESIAN_POINT('',(-2.894062282503E1,-2.503390635023E0,2.277554933167E1));
#445=CARTESIAN_POINT('',(-2.858158999774E1,-3.130071930775E0,2.275643684746E1));
#446=CARTESIAN_POINT('',(-2.966114831676E1,-2.558188764383E0,2.172486510572E1));
#447=CARTESIAN_POINT('',(-2.968121526896E1,-2.546905962663E0,2.233994799281E1));
#448=CARTESIAN_POINT('',(-2.923812966344E1,-2.800897528092E0,2.277536911568E1));
#449=CARTESIAN_POINT('',(-2.861143677338E1,-3.159918711900E0,2.275641876765E1));
#450=CARTESIAN_POINT('',(-2.963989470810E1,-3.234489680961E0,2.172487810106E1));
#451=CARTESIAN_POINT('',(-2.965958800616E1,-3.235096748655E0,2.233996121661E1));
#452=CARTESIAN_POINT('',(-2.922491395700E1,-3.221428202173E0,2.277537719631E1));
#453=CARTESIAN_POINT('',(-2.861011093419E1,-3.202107606605E0,2.275641957832E1));
#454=(BOUNDED_SURFACE()B_SPLINE_SURFACE(3,3,((#438,#439,#440,#441),(#442,#443,
#444,#445),(#446,#447,#448,#449),(#450,#451,#452,#453)),.UNSPECIFIED.,.F.,.F.,
.F.)B_SPLINE_SURFACE_WITH_KNOTS((4,4),(4,4),(0.E0,1.E0),(0.E0,1.E0),
.UNSPECIFIED.)GEOMETRIC_REPRESENTATION_ITEM()RATIONAL_B_SPLINE_SURFACE(((
1.409592795993E0,1.113152711354E0,1.113152711354E0,1.409592795993E0),(
1.113152711328E0,8.790545484401E-1,8.790545484401E-1,1.113152711328E0),(
1.113152711328E0,8.790545484401E-1,8.790545484401E-1,1.113152711328E0),(
1.409592795993E0,1.113152711354E0,1.113152711354E0,1.409592795993E0)))REPRESENTATION_ITEM('')SURFACE());
#456=ORIENTED_EDGE('',*,*,#455,.F.);
#458=ORIENTED_EDGE('',*,*,#457,.F.);
#459=ORIENTED_EDGE('',*,*,#428,.T.);
#461=ORIENTED_EDGE('',*,*,#460,.T.);
#462=EDGE_LOOP('',(#456,#458,#459,#461));
#463=FACE_OUTER_BOUND('',#462,.F.);
#464=ADVANCED_FACE('',(#463),#454,.T.);
#465=CARTESIAN_POINT('',(-2.864094990395E1,-4.199953339725E0,2.175689432120E1));
#466=DIRECTION('',(9.298128512006E-11,1.E0,-1.732864364319E-7));
#467=DIRECTION('',(-9.999998164261E-1,-1.201770769897E-11,-6.059272607373E-4));
#468=AXIS2_PLACEMENT_3D('',#465,#466,#467);
#469=CYLINDRICAL_SURFACE('',#468,1.000000000007E0);
#471=ORIENTED_EDGE('',*,*,#470,.F.);
#473=ORIENTED_EDGE('',*,*,#472,.F.);
#474=ORIENTED_EDGE('',*,*,#455,.T.);
#476=ORIENTED_EDGE('',*,*,#475,.F.);
#477=EDGE_LOOP('',(#471,#473,#474,#476));
#478=FACE_OUTER_BOUND('',#477,.F.);
#479=ADVANCED_FACE('',(#478),#469,.T.);
#480=CARTESIAN_POINT('',(-2.963989470829E1,-5.165417009564E0,2.172487843566E1));
#481=CARTESIAN_POINT('',(-2.965958800636E1,-5.164809728703E0,2.233996155101E1));
#482=CARTESIAN_POINT('',(-2.922491395718E1,-5.178478124180E0,2.277537753546E1));
#483=CARTESIAN_POINT('',(-2.861011093436E1,-5.197798726174E0,2.275641992415E1));
#484=CARTESIAN_POINT('',(-2.966114831679E1,-5.841717926133E0,2.172486567472E1));
#485=CARTESIAN_POINT('',(-2.968121526899E1,-5.853000514684E0,2.233994856572E1));
#486=CARTESIAN_POINT('',(-2.923812966353E1,-5.599008798294E0,2.277536960057E1));
#487=CARTESIAN_POINT('',(-2.861143677354E1,-5.239987620978E0,2.275641912810E1));
#488=CARTESIAN_POINT('',(-2.918269535266E1,-6.320170977964E0,2.172515566538E1));
#489=CARTESIAN_POINT('',(-2.919435074851E1,-6.339865124398E0,2.234024365463E1));
#490=CARTESIAN_POINT('',(-2.894062282506E1,-5.896515691289E0,2.277554991966E1));
#491=CARTESIAN_POINT('',(-2.858158999782E1,-5.269834402164E0,2.275643721825E1));
#492=CARTESIAN_POINT('',(-2.850639456025E1,-6.298917365366E0,2.172556545086E1));
#493=CARTESIAN_POINT('',(-2.850616008887E1,-6.318237857599E0,2.234066064444E1));
#494=CARTESIAN_POINT('',(-2.852009222815E1,-5.883299982402E0,2.277580472837E1));
#495=CARTESIAN_POINT('',(-2.853940111076E1,-5.268508562727E0,2.275646278142E1));
#496=(BOUNDED_SURFACE()B_SPLINE_SURFACE(3,3,((#480,#481,#482,#483),(#484,#485,
#486,#487),(#488,#489,#490,#491),(#492,#493,#494,#495)),.UNSPECIFIED.,.F.,.F.,
.F.)B_SPLINE_SURFACE_WITH_KNOTS((4,4),(4,4),(0.E0,1.E0),(0.E0,1.E0),
.UNSPECIFIED.)GEOMETRIC_REPRESENTATION_ITEM()RATIONAL_B_SPLINE_SURFACE(((
1.409592795919E0,1.113152711289E0,1.113152711289E0,1.409592795919E0),(
1.113152711360E0,8.790545484595E-1,8.790545484595E-1,1.113152711360E0),(
1.113152711360E0,8.790545484595E-1,8.790545484595E-1,1.113152711360E0),(
1.409592795919E0,1.113152711289E0,1.113152711289E0,1.409592795919E0)))REPRESENTATION_ITEM('')SURFACE());
#498=ORIENTED_EDGE('',*,*,#497,.F.);
#500=ORIENTED_EDGE('',*,*,#499,.F.);
#501=ORIENTED_EDGE('',*,*,#470,.T.);
#503=ORIENTED_EDGE('',*,*,#502,.T.);
#504=EDGE_LOOP('',(#498,#500,#501,#503));
#505=FACE_OUTER_BOUND('',#504,.F.);
#506=ADVANCED_FACE('',(#505),#496,.T.);
#507=CARTESIAN_POINT('',(-2.354095084007E1,-5.299953339239E0,2.175998474089E1));
#508=DIRECTION('',(-9.999998164261E-1,-8.729189574148E-11,-6.059272674270E-4));
#509=DIRECTION('',(-1.770744975781E-11,-1.E0,1.732870393744E-7));
#510=AXIS2_PLACEMENT_3D('',#507,#508,#509);
#511=CYLINDRICAL_SURFACE('',#510,1.E0);
#513=ORIENTED_EDGE('',*,*,#512,.F.);
#515=ORIENTED_EDGE('',*,*,#514,.F.);
#516=ORIENTED_EDGE('',*,*,#497,.T.);
#518=ORIENTED_EDGE('',*,*,#517,.F.);
#519=EDGE_LOOP('',(#513,#515,#516,#518));
#520=FACE_OUTER_BOUND('',#519,.F.);
#521=ADVANCED_FACE('',(#520),#511,.T.);
#522=CARTESIAN_POINT('',(-1.857546905465E1,-6.298917364506E0,2.173158287052E1));
#523=CARTESIAN_POINT('',(-1.857644893161E1,-6.318237856739E0,2.234667732829E1));
#524=CARTESIAN_POINT('',(-1.856304413397E1,-5.883299981540E0,2.278183797642E1));
#525=CARTESIAN_POINT('',(-1.854371182614E1,-5.268508561860E0,2.276251944323E1));
#526=CARTESIAN_POINT('',(-1.789916826222E1,-6.320170976848E0,2.173199266337E1));
#527=CARTESIAN_POINT('',(-1.788825827195E1,-6.339865123277E0,2.234709432560E1));
#528=CARTESIAN_POINT('',(-1.814251353704E1,-5.896515690268E0,2.278209278972E1));
#529=CARTESIAN_POINT('',(-1.850152293908E1,-5.269834401280E0,2.276254500686E1));
#530=CARTESIAN_POINT('',(-1.742071529816E1,-5.841717924808E0,2.173228248821E1));
#531=CARTESIAN_POINT('',(-1.740139375155E1,-5.853000513350E0,2.234738924578E1));
#532=CARTESIAN_POINT('',(-1.784500669862E1,-5.599008797143E0,2.278227300570E1));
#533=CARTESIAN_POINT('',(-1.847167616338E1,-5.239987620085E0,2.276256308666E1));
#534=CARTESIAN_POINT('',(-1.744196890682E1,-5.165417008227E0,2.173226949287E1));
#535=CARTESIAN_POINT('',(-1.742302101434E1,-5.164809727357E0,2.234737602197E1));
#536=CARTESIAN_POINT('',(-1.785822240506E1,-5.178478123023E0,2.278226492507E1));
#537=CARTESIAN_POINT('',(-1.847300200257E1,-5.197798725284E0,2.276256227599E1));
#538=(BOUNDED_SURFACE()B_SPLINE_SURFACE(3,3,((#522,#523,#524,#525),(#526,#527,
#528,#529),(#530,#531,#532,#533),(#534,#535,#536,#537)),.UNSPECIFIED.,.F.,.F.,
.F.)B_SPLINE_SURFACE_WITH_KNOTS((4,4),(4,4),(0.E0,1.E0),(0.E0,1.E0),
.UNSPECIFIED.)GEOMETRIC_REPRESENTATION_ITEM()RATIONAL_B_SPLINE_SURFACE(((
1.409592795934E0,1.113152711302E0,1.113152711302E0,1.409592795934E0),(
1.113152711353E0,8.790545484556E-1,8.790545484556E-1,1.113152711353E0),(
1.113152711353E0,8.790545484556E-1,8.790545484556E-1,1.113152711353E0),(
1.409592795934E0,1.113152711302E0,1.113152711302E0,1.409592795934E0)))REPRESENTATION_ITEM('')SURFACE());
#539=ORIENTED_EDGE('',*,*,#389,.F.);
#541=ORIENTED_EDGE('',*,*,#540,.F.);
#542=ORIENTED_EDGE('',*,*,#512,.T.);
#544=ORIENTED_EDGE('',*,*,#543,.T.);
#545=EDGE_LOOP('',(#539,#541,#542,#544));
#546=FACE_OUTER_BOUND('',#545,.F.);
#547=ADVANCED_FACE('',(#546),#538,.T.);
#548=CARTESIAN_POINT('',(-1.854034583087E1,-5.199953511910E0,2.076301454330E1));
#549=DIRECTION('',(6.059272674204E-4,-1.732869894271E-7,-9.999998164260E-1));
#550=DIRECTION('',(9.999998164261E-1,9.859798715797E-11,6.059272674204E-4));
#551=AXIS2_PLACEMENT_3D('',#548,#549,#550);
#552=CYLINDRICAL_SURFACE('',#551,1.100000000179E0);
#553=ORIENTED_EDGE('',*,*,#540,.T.);
#554=ORIENTED_EDGE('',*,*,#376,.F.);
#556=ORIENTED_EDGE('',*,*,#555,.F.);
#558=ORIENTED_EDGE('',*,*,#557,.T.);
#559=EDGE_LOOP('',(#553,#554,#556,#558));
#560=FACE_OUTER_BOUND('',#559,.F.);
#561=ADVANCED_FACE('',(#560),#552,.T.);
#562=CARTESIAN_POINT('',(-2.353913305829E1,-3.699953859012E0,1.875998501400E1));
#563=DIRECTION('',(-6.059272674204E-4,1.732869894271E-7,9.999998164260E-1));
#564=DIRECTION('',(0.E0,1.E0,-1.732870212380E-7));
#565=AXIS2_PLACEMENT_3D('',#562,#563,#564);
#566=PLANE('',#565);
#568=ORIENTED_EDGE('',*,*,#567,.F.);
#570=ORIENTED_EDGE('',*,*,#569,.F.);
#572=ORIENTED_EDGE('',*,*,#571,.F.);
#574=ORIENTED_EDGE('',*,*,#573,.F.);
#576=ORIENTED_EDGE('',*,*,#575,.F.);
#578=ORIENTED_EDGE('',*,*,#577,.T.);
#580=ORIENTED_EDGE('',*,*,#579,.F.);
#582=ORIENTED_EDGE('',*,*,#581,.F.);
#583=EDGE_LOOP('',(#568,#570,#572,#574,#576,#578,#580,#582));
#584=FACE_OUTER_BOUND('',#583,.F.);
#586=ORIENTED_EDGE('',*,*,#585,.T.);
#588=ORIENTED_EDGE('',*,*,#587,.F.);
#589=ORIENTED_EDGE('',*,*,#555,.T.);
#590=ORIENTED_EDGE('',*,*,#374,.F.);
#592=ORIENTED_EDGE('',*,*,#591,.F.);
#594=ORIENTED_EDGE('',*,*,#593,.F.);
#596=ORIENTED_EDGE('',*,*,#595,.F.);
#598=ORIENTED_EDGE('',*,*,#597,.F.);
#599=EDGE_LOOP('',(#586,#588,#589,#590,#592,#594,#596,#598));
#600=FACE_BOUND('',#599,.F.);
#601=ADVANCED_FACE('',(#584,#600),#566,.T.);
#602=CARTESIAN_POINT('',(-2.854034399495E1,-5.199953512770E0,2.075695527062E1));
#603=DIRECTION('',(6.059272674204E-4,-1.732869894271E-7,-9.999998164260E-1));
#604=DIRECTION('',(-6.459478229081E-12,-1.E0,1.732870173241E-7));
#605=AXIS2_PLACEMENT_3D('',#602,#603,#604);
#606=CYLINDRICAL_SURFACE('',#605,1.100000000192E0);
#607=ORIENTED_EDGE('',*,*,#499,.T.);
#609=ORIENTED_EDGE('',*,*,#608,.F.);
#610=ORIENTED_EDGE('',*,*,#585,.F.);
#612=ORIENTED_EDGE('',*,*,#611,.T.);
#613=EDGE_LOOP('',(#607,#609,#610,#612));
#614=FACE_OUTER_BOUND('',#613,.F.);
#615=ADVANCED_FACE('',(#614),#606,.T.);
#616=CARTESIAN_POINT('',(-2.354004194919E1,-6.299953599170E0,2.025998518936E1));
#617=DIRECTION('',(-1.771027443766E-11,-1.E0,1.732870105069E-7));
#618=DIRECTION('',(-9.999998164261E-1,-8.728905356938E-11,-6.059272674204E-4));
#619=AXIS2_PLACEMENT_3D('',#616,#617,#618);
#620=PLANE('',#619);
#621=ORIENTED_EDGE('',*,*,#514,.T.);
#622=ORIENTED_EDGE('',*,*,#557,.F.);
#623=ORIENTED_EDGE('',*,*,#587,.T.);
#624=ORIENTED_EDGE('',*,*,#608,.T.);
#625=EDGE_LOOP('',(#621,#622,#623,#624));
#626=FACE_OUTER_BOUND('',#625,.F.);
#627=ADVANCED_FACE('',(#626),#620,.T.);
#628=CARTESIAN_POINT('',(-2.964004082948E1,-4.199953599722E0,2.025628866913E1));
#629=DIRECTION('',(9.999998164261E-1,1.198928714762E-11,6.059272674204E-4));
#630=DIRECTION('',(9.301002703634E-11,1.E0,-1.732869648807E-7));
#631=AXIS2_PLACEMENT_3D('',#628,#629,#630);
#632=PLANE('',#631);
#633=ORIENTED_EDGE('',*,*,#472,.T.);
#634=ORIENTED_EDGE('',*,*,#611,.F.);
#635=ORIENTED_EDGE('',*,*,#597,.T.);
#637=ORIENTED_EDGE('',*,*,#636,.T.);
#638=EDGE_LOOP('',(#633,#634,#635,#637));
#639=FACE_OUTER_BOUND('',#638,.F.);
#640=ADVANCED_FACE('',(#639),#632,.F.);
#641=CARTESIAN_POINT('',(-2.854034399496E1,-3.199953512960E0,2.075695492405E1));
#642=DIRECTION('',(6.059272674204E-4,-1.732869894271E-7,-9.999998164260E-1));
#643=DIRECTION('',(-9.999998164261E-1,-1.030227305569E-10,-6.059272674204E-4));
#644=AXIS2_PLACEMENT_3D('',#641,#642,#643);
#645=CYLINDRICAL_SURFACE('',#644,1.099999999997E0);
#646=ORIENTED_EDGE('',*,*,#457,.T.);
#647=ORIENTED_EDGE('',*,*,#636,.F.);
#648=ORIENTED_EDGE('',*,*,#595,.T.);
#650=ORIENTED_EDGE('',*,*,#649,.T.);
#651=EDGE_LOOP('',(#646,#647,#648,#650));
#652=FACE_OUTER_BOUND('',#651,.F.);
#653=ADVANCED_FACE('',(#652),#645,.T.);
#654=CARTESIAN_POINT('',(-2.354004194919E1,-2.099953599081E0,2.025998446156E1));
#655=DIRECTION('',(0.E0,-1.E0,1.732870212380E-7));
#656=DIRECTION('',(9.999998164261E-1,1.049993312582E-10,6.059272674204E-4));
#657=AXIS2_PLACEMENT_3D('',#654,#655,#656);
#658=PLANE('',#657);
#659=ORIENTED_EDGE('',*,*,#430,.T.);
#660=ORIENTED_EDGE('',*,*,#649,.F.);
#661=ORIENTED_EDGE('',*,*,#593,.T.);
#663=ORIENTED_EDGE('',*,*,#662,.T.);
#664=EDGE_LOOP('',(#659,#660,#661,#663));
#665=FACE_OUTER_BOUND('',#664,.F.);
#666=ADVANCED_FACE('',(#665),#658,.F.);
#667=CARTESIAN_POINT('',(-1.854034583070E1,-3.199953512106E0,2.076301419672E1));
#668=DIRECTION('',(6.059272674204E-4,-1.732869894271E-7,-9.999998164260E-1));
#669=DIRECTION('',(6.511154054907E-12,1.E0,-1.732870172927E-7));
#670=AXIS2_PLACEMENT_3D('',#667,#668,#669);
#671=CYLINDRICAL_SURFACE('',#670,1.100000000193E0);
#672=ORIENTED_EDGE('',*,*,#415,.T.);
#673=ORIENTED_EDGE('',*,*,#662,.F.);
#674=ORIENTED_EDGE('',*,*,#591,.T.);
#675=ORIENTED_EDGE('',*,*,#372,.F.);
#676=EDGE_LOOP('',(#672,#673,#674,#675));
#677=FACE_OUTER_BOUND('',#676,.F.);
#678=ADVANCED_FACE('',(#677),#671,.T.);
#679=CARTESIAN_POINT('',(-3.093456950932E1,-1.499955164513E0,1.122623127746E1));
#680=DIRECTION('',(-6.059272674204E-4,1.732869894172E-7,9.999998164260E-1));
#681=DIRECTION('',(0.E0,1.E0,-1.732870212303E-7));
#682=AXIS2_PLACEMENT_3D('',#679,#680,#681);
#683=CYLINDRICAL_SURFACE('',#682,1.E0);
#685=ORIENTED_EDGE('',*,*,#684,.T.);
#687=ORIENTED_EDGE('',*,*,#686,.T.);
#688=ORIENTED_EDGE('',*,*,#567,.T.);
#690=ORIENTED_EDGE('',*,*,#689,.F.);
#691=EDGE_LOOP('',(#685,#687,#688,#690));
#692=FACE_OUTER_BOUND('',#691,.F.);
#693=ADVANCED_FACE('',(#692),#683,.T.);
#694=CARTESIAN_POINT('',(-2.353852713102E1,-3.699954032299E0,1.775998519758E1));
#695=DIRECTION('',(-6.059272674204E-4,1.732869894271E-7,9.999998164260E-1));
#696=DIRECTION('',(0.E0,-1.E0,1.732870212380E-7));
#697=AXIS2_PLACEMENT_3D('',#694,#695,#696);
#698=PLANE('',#697);
#699=ORIENTED_EDGE('',*,*,#684,.F.);
#701=ORIENTED_EDGE('',*,*,#700,.F.);
#703=ORIENTED_EDGE('',*,*,#702,.F.);
#705=ORIENTED_EDGE('',*,*,#704,.F.);
#707=ORIENTED_EDGE('',*,*,#706,.F.);
#709=ORIENTED_EDGE('',*,*,#708,.F.);
#711=ORIENTED_EDGE('',*,*,#710,.F.);
#713=ORIENTED_EDGE('',*,*,#712,.T.);
#714=EDGE_LOOP('',(#699,#701,#703,#705,#707,#709,#711,#713));
#715=FACE_OUTER_BOUND('',#714,.F.);
#716=ADVANCED_FACE('',(#715),#698,.F.);
#717=CARTESIAN_POINT('',(-3.193882855264E1,-3.699953946537E0,1.825489531674E1));
#718=DIRECTION('',(9.999998164261E-1,1.049993312582E-10,6.059272674204E-4));
#719=DIRECTION('',(-6.059272674204E-4,1.732869894271E-7,9.999998164260E-1));
#720=AXIS2_PLACEMENT_3D('',#717,#718,#719);
#721=PLANE('',#720);
#722=ORIENTED_EDGE('',*,*,#689,.T.);
#723=ORIENTED_EDGE('',*,*,#581,.T.);
#725=ORIENTED_EDGE('',*,*,#724,.F.);
#726=ORIENTED_EDGE('',*,*,#700,.T.);
#727=EDGE_LOOP('',(#722,#723,#725,#726));
#728=FACE_OUTER_BOUND('',#727,.F.);
#729=ADVANCED_FACE('',(#728),#721,.F.);
#730=CARTESIAN_POINT('',(-3.093456950902E1,-5.899955164513E0,1.122623155689E1));
#731=DIRECTION('',(-6.059272674205E-4,1.732869894340E-7,9.999998164260E-1));
#732=DIRECTION('',(-9.999998164261E-1,-1.049995645985E-10,-6.059272674205E-4));
#733=AXIS2_PLACEMENT_3D('',#730,#731,#732);
#734=CYLINDRICAL_SURFACE('',#733,1.E0);
#735=ORIENTED_EDGE('',*,*,#702,.T.);
#736=ORIENTED_EDGE('',*,*,#724,.T.);
#737=ORIENTED_EDGE('',*,*,#579,.T.);
#739=ORIENTED_EDGE('',*,*,#738,.F.);
#740=EDGE_LOOP('',(#735,#736,#737,#739));
#741=FACE_OUTER_BOUND('',#740,.F.);
#742=ADVANCED_FACE('',(#741),#734,.T.);
#743=CARTESIAN_POINT('',(-2.353883009466E1,-6.899953945655E0,1.825998553901E1));
#744=DIRECTION('',(0.E0,-1.E0,1.732870212380E-7));
#745=DIRECTION('',(-9.999998164261E-1,-1.049993312582E-10,-6.059272674204E-4));
#746=AXIS2_PLACEMENT_3D('',#743,#744,#745);
#747=PLANE('',#746);
#749=ORIENTED_EDGE('',*,*,#748,.F.);
#750=ORIENTED_EDGE('',*,*,#704,.T.);
#751=ORIENTED_EDGE('',*,*,#738,.T.);
#752=ORIENTED_EDGE('',*,*,#577,.F.);
#753=EDGE_LOOP('',(#749,#750,#751,#752));
#754=FACE_OUTER_BOUND('',#753,.F.);
#755=ADVANCED_FACE('',(#754),#747,.T.);
#756=CARTESIAN_POINT('',(-1.613456679213E1,-5.899955164513E0,1.122623155689E1));
#757=DIRECTION('',(-6.059272674203E-4,1.732869894340E-7,9.999998164260E-1));
#758=DIRECTION('',(0.E0,-1.E0,1.732870212472E-7));
#759=AXIS2_PLACEMENT_3D('',#756,#757,#758);
#760=CYLINDRICAL_SURFACE('',#759,1.E0);
#761=ORIENTED_EDGE('',*,*,#706,.T.);
#762=ORIENTED_EDGE('',*,*,#748,.T.);
#763=ORIENTED_EDGE('',*,*,#575,.T.);
#765=ORIENTED_EDGE('',*,*,#764,.F.);
#766=EDGE_LOOP('',(#761,#762,#763,#765));
#767=FACE_OUTER_BOUND('',#766,.F.);
#768=ADVANCED_FACE('',(#767),#760,.T.);
#769=CARTESIAN_POINT('',(-1.513883163668E1,-3.699953944773E0,1.826507489484E1));
#770=DIRECTION('',(9.999998164261E-1,1.049993312582E-10,6.059272674204E-4));
#771=DIRECTION('',(0.E0,-1.E0,1.732870212380E-7));
#772=AXIS2_PLACEMENT_3D('',#769,#770,#771);
#773=PLANE('',#772);
#775=ORIENTED_EDGE('',*,*,#774,.F.);
#776=ORIENTED_EDGE('',*,*,#708,.T.);
#777=ORIENTED_EDGE('',*,*,#764,.T.);
#778=ORIENTED_EDGE('',*,*,#573,.T.);
#779=EDGE_LOOP('',(#775,#776,#777,#778));
#780=FACE_OUTER_BOUND('',#779,.F.);
#781=ADVANCED_FACE('',(#780),#773,.T.);
#782=CARTESIAN_POINT('',(-1.613456679242E1,-1.499955164513E0,1.122623127746E1));
#783=DIRECTION('',(-6.059272674204E-4,1.732869894172E-7,9.999998164260E-1));
#784=DIRECTION('',(9.999998164261E-1,1.049993425539E-10,6.059272674204E-4));
#785=AXIS2_PLACEMENT_3D('',#782,#783,#784);
#786=CYLINDRICAL_SURFACE('',#785,1.E0);
#787=ORIENTED_EDGE('',*,*,#710,.T.);
#788=ORIENTED_EDGE('',*,*,#774,.T.);
#789=ORIENTED_EDGE('',*,*,#571,.T.);
#791=ORIENTED_EDGE('',*,*,#790,.F.);
#792=EDGE_LOOP('',(#787,#788,#789,#791));
#793=FACE_OUTER_BOUND('',#792,.F.);
#794=ADVANCED_FACE('',(#793),#786,.T.);
#795=CARTESIAN_POINT('',(-2.353883009466E1,-4.999539456551E-1,
1.825998467257E1));
#796=DIRECTION('',(0.E0,-1.E0,1.732870212380E-7));
#797=DIRECTION('',(-6.059272674204E-4,1.732869894271E-7,9.999998164260E-1));
#798=AXIS2_PLACEMENT_3D('',#795,#796,#797);
#799=PLANE('',#798);
#800=ORIENTED_EDGE('',*,*,#686,.F.);
#801=ORIENTED_EDGE('',*,*,#712,.F.);
#802=ORIENTED_EDGE('',*,*,#790,.T.);
#803=ORIENTED_EDGE('',*,*,#569,.T.);
#804=EDGE_LOOP('',(#800,#801,#802,#803));
#805=FACE_OUTER_BOUND('',#804,.F.);
#806=ADVANCED_FACE('',(#805),#799,.F.);
#807=CARTESIAN_POINT('',(-2.354155676736E1,-4.199953165952E0,2.275998436670E1));
#808=DIRECTION('',(-6.059272674204E-4,1.732869894271E-7,9.999998164260E-1));
#809=DIRECTION('',(0.E0,-1.E0,1.732870212380E-7));
#810=AXIS2_PLACEMENT_3D('',#807,#808,#809);
#811=PLANE('',#810);
#812=ORIENTED_EDGE('',*,*,#460,.F.);
#813=ORIENTED_EDGE('',*,*,#433,.T.);
#814=ORIENTED_EDGE('',*,*,#418,.F.);
#815=ORIENTED_EDGE('',*,*,#391,.T.);
#816=ORIENTED_EDGE('',*,*,#543,.F.);
#817=ORIENTED_EDGE('',*,*,#517,.T.);
#818=ORIENTED_EDGE('',*,*,#502,.F.);
#819=ORIENTED_EDGE('',*,*,#475,.T.);
#820=EDGE_LOOP('',(#812,#813,#814,#815,#816,#817,#818,#819));
#821=FACE_OUTER_BOUND('',#820,.F.);
#822=ADVANCED_FACE('',(#821),#811,.T.);
#826=DIMENSIONAL_EXPONENTS(0.E0,0.E0,0.E0,0.E0,0.E0,0.E0,0.E0);
#828=PLANE_ANGLE_MEASURE_WITH_UNIT(PLANE_ANGLE_MEASURE(1.745329251994E-2),#827);
#829=(CONVERSION_BASED_UNIT('DEGREE',#828)NAMED_UNIT(*)PLANE_ANGLE_UNIT());
#831=UNCERTAINTY_MEASURE_WITH_UNIT(LENGTH_MEASURE(1.E-2),#825,'closure',
'Maximum model space distance between geometric entities at asserted connectivities');
#832=(GEOMETRIC_REPRESENTATION_CONTEXT(3)GLOBAL_UNCERTAINTY_ASSIGNED_CONTEXT((
#831))GLOBAL_UNIT_ASSIGNED_CONTEXT((#825,#829,#830))REPRESENTATION_CONTEXT
('ID1','3'));
#834=APPLICATION_CONTEXT(
'CONFIGURATION CONTROLLED 3D DESIGNS OF MECHANICAL PARTS AND ASSEMBLIES');
#835=APPLICATION_PROTOCOL_DEFINITION('international standard',
'config_control_design',1994,#834);
#836=DESIGN_CONTEXT('',#834,'design');
#837=MECHANICAL_CONTEXT('',#834,'mechanical');
#838=PRODUCT('ANJIANMAO','ANJIANMAO','NOT SPECIFIED',(#837));
#839=PRODUCT_DEFINITION_FORMATION_WITH_SPECIFIED_SOURCE('2','LAST_VERSION',#838,
.MADE.);
#843=PRODUCT_CATEGORY('part','');
#844=PRODUCT_RELATED_PRODUCT_CATEGORY('detail','',(#838));
#845=PRODUCT_CATEGORY_RELATIONSHIP('','',#843,#844);
#846=SECURITY_CLASSIFICATION_LEVEL('unclassified');
#847=SECURITY_CLASSIFICATION('','',#846);
#848=CC_DESIGN_SECURITY_CLASSIFICATION(#847,(#839));
#849=APPROVAL_STATUS('approved');
#850=APPROVAL(#849,'');
#851=CC_DESIGN_APPROVAL(#850,(#847,#839,#840));
#852=CALENDAR_DATE(125,17,9);
#853=COORDINATED_UNIVERSAL_TIME_OFFSET(8,0,.AHEAD.);
#854=LOCAL_TIME(11,36,3.2E1,#853);
#855=DATE_AND_TIME(#852,#854);
#856=APPROVAL_DATE_TIME(#855,#850);
#857=DATE_TIME_ROLE('creation_date');
#858=CC_DESIGN_DATE_AND_TIME_ASSIGNMENT(#855,#857,(#840));
#859=DATE_TIME_ROLE('classification_date');
#860=CC_DESIGN_DATE_AND_TIME_ASSIGNMENT(#855,#859,(#847));
#861=PERSON('UNSPECIFIED','UNSPECIFIED',$,$,$,$);
#862=ORGANIZATION('UNSPECIFIED','UNSPECIFIED','UNSPECIFIED');
#863=PERSON_AND_ORGANIZATION(#861,#862);
#864=APPROVAL_ROLE('approver');
#865=APPROVAL_PERSON_ORGANIZATION(#863,#850,#864);
#866=PERSON_AND_ORGANIZATION_ROLE('creator');
#867=CC_DESIGN_PERSON_AND_ORGANIZATION_ASSIGNMENT(#863,#866,(#839,#840));
#868=PERSON_AND_ORGANIZATION_ROLE('design_supplier');
#869=CC_DESIGN_PERSON_AND_ORGANIZATION_ASSIGNMENT(#863,#868,(#839));
#870=PERSON_AND_ORGANIZATION_ROLE('classification_officer');
#871=CC_DESIGN_PERSON_AND_ORGANIZATION_ASSIGNMENT(#863,#870,(#847));
#872=PERSON_AND_ORGANIZATION_ROLE('design_owner');
#873=CC_DESIGN_PERSON_AND_ORGANIZATION_ASSIGNMENT(#863,#872,(#838));
#13=CIRCLE('',#12,9.999999999974E-1);
#18=CIRCLE('',#17,1.100000000193E0);
#23=CIRCLE('',#22,9.999999999974E-1);
#28=CIRCLE('',#27,1.E0);
#41=CIRCLE('',#40,9.999999999974E-1);
#46=CIRCLE('',#45,1.099999999997E0);
#51=CIRCLE('',#50,1.000000000007E0);
#64=CIRCLE('',#63,9.999999999974E-1);
#69=CIRCLE('',#68,1.100000000192E0);
#74=CIRCLE('',#73,1.E0);
#87=CIRCLE('',#86,9.999999999975E-1);
#92=CIRCLE('',#91,1.100000000180E0);
#101=CIRCLE('',#100,1.100000000192E0);
#110=CIRCLE('',#109,1.100000000179E0);
#119=CIRCLE('',#118,1.100000000193E0);
#128=CIRCLE('',#127,1.099999999997E0);
#137=CIRCLE('',#136,1.E0);
#142=CIRCLE('',#141,1.E0);
#147=CIRCLE('',#146,1.E0);
#156=CIRCLE('',#155,1.E0);
#189=CIRCLE('',#188,1.E0);
#194=CIRCLE('',#193,1.E0);
#199=CIRCLE('',#198,1.E0);
#204=CIRCLE('',#203,1.E0);
#269=CIRCLE('',#268,1.000000000042E-1);
#274=CIRCLE('',#273,1.000000001959E-1);
#279=CIRCLE('',#278,1.000000001886E-1);
#284=CIRCLE('',#283,1.000000002003E-1);
#370=EDGE_CURVE('',#287,#288,#4,.T.);
#372=EDGE_CURVE('',#288,#292,#184,.T.);
#374=EDGE_CURVE('',#292,#290,#114,.T.);
#376=EDGE_CURVE('',#290,#287,#96,.T.);
#386=EDGE_CURVE('',#330,#288,#23,.T.);
#389=EDGE_CURVE('',#287,#328,#87,.T.);
#391=EDGE_CURVE('',#330,#328,#8,.T.);
#413=EDGE_CURVE('',#314,#332,#13,.T.);
#415=EDGE_CURVE('',#288,#314,#18,.T.);
#418=EDGE_CURVE('',#330,#332,#274,.T.);
#428=EDGE_CURVE('',#310,#319,#28,.T.);
#430=EDGE_CURVE('',#314,#310,#32,.T.);
#433=EDGE_CURVE('',#319,#332,#36,.T.);
#455=EDGE_CURVE('',#306,#320,#41,.T.);
#457=EDGE_CURVE('',#310,#306,#46,.T.);
#460=EDGE_CURVE('',#319,#320,#269,.T.);
#470=EDGE_CURVE('',#302,#322,#51,.T.);
#472=EDGE_CURVE('',#306,#302,#55,.T.);
#475=EDGE_CURVE('',#322,#320,#59,.T.);
#497=EDGE_CURVE('',#298,#324,#64,.T.);
#499=EDGE_CURVE('',#302,#298,#69,.T.);
#502=EDGE_CURVE('',#322,#324,#284,.T.);
#512=EDGE_CURVE('',#294,#326,#74,.T.);
#514=EDGE_CURVE('',#298,#294,#78,.T.);
#517=EDGE_CURVE('',#326,#324,#82,.T.);
#540=EDGE_CURVE('',#294,#287,#92,.T.);
#543=EDGE_CURVE('',#326,#328,#279,.T.);
#555=EDGE_CURVE('',#296,#290,#110,.T.);
#557=EDGE_CURVE('',#296,#294,#164,.T.);
#567=EDGE_CURVE('',#354,#356,#137,.T.);
#569=EDGE_CURVE('',#364,#354,#264,.T.);
#571=EDGE_CURVE('',#362,#364,#142,.T.);
#573=EDGE_CURVE('',#340,#362,#252,.T.);
#575=EDGE_CURVE('',#338,#340,#147,.T.);
#577=EDGE_CURVE('',#338,#348,#151,.T.);
#579=EDGE_CURVE('',#346,#348,#156,.T.);
#581=EDGE_CURVE('',#356,#346,#216,.T.);
#585=EDGE_CURVE('',#304,#300,#101,.T.);
#587=EDGE_CURVE('',#296,#300,#105,.T.);
#591=EDGE_CURVE('',#316,#292,#119,.T.);
#593=EDGE_CURVE('',#312,#316,#123,.T.);
#595=EDGE_CURVE('',#308,#312,#128,.T.);
#597=EDGE_CURVE('',#304,#308,#132,.T.);
#608=EDGE_CURVE('',#300,#298,#160,.T.);
#611=EDGE_CURVE('',#304,#302,#168,.T.);
#636=EDGE_CURVE('',#308,#306,#172,.T.);
#649=EDGE_CURVE('',#312,#310,#176,.T.);
#662=EDGE_CURVE('',#316,#314,#180,.T.);
#684=EDGE_CURVE('',#351,#352,#189,.T.);
#686=EDGE_CURVE('',#352,#354,#256,.T.);
#689=EDGE_CURVE('',#351,#356,#212,.T.);
#700=EDGE_CURVE('',#344,#351,#224,.T.);
#702=EDGE_CURVE('',#343,#344,#194,.T.);
#704=EDGE_CURVE('',#336,#343,#232,.T.);
#706=EDGE_CURVE('',#335,#336,#199,.T.);
#708=EDGE_CURVE('',#360,#335,#244,.T.);
#710=EDGE_CURVE('',#359,#360,#204,.T.);
#712=EDGE_CURVE('',#359,#352,#208,.T.);
#724=EDGE_CURVE('',#344,#346,#220,.T.);
#738=EDGE_CURVE('',#343,#348,#236,.T.);
#748=EDGE_CURVE('',#336,#338,#228,.T.);
#764=EDGE_CURVE('',#335,#340,#248,.T.);
#774=EDGE_CURVE('',#360,#362,#240,.T.);
#790=EDGE_CURVE('',#359,#364,#260,.T.);
#823=CLOSED_SHELL('',(#380,#395,#422,#437,#464,#479,#506,#521,#547,#561,#601,
#615,#627,#640,#653,#666,#678,#693,#716,#729,#742,#755,#768,#781,#794,#806,
#822));
#824=MANIFOLD_SOLID_BREP('',#823);
#825=(LENGTH_UNIT()NAMED_UNIT(*)SI_UNIT(.MILLI.,.METRE.));
#827=(NAMED_UNIT(*)PLANE_ANGLE_UNIT()SI_UNIT($,.RADIAN.));
#830=(NAMED_UNIT(*)SI_UNIT($,.STERADIAN.)SOLID_ANGLE_UNIT());
#833=ADVANCED_BREP_SHAPE_REPRESENTATION('',(#824),#832);
#840=PRODUCT_DEFINITION('design','',#839,#836);
#841=PRODUCT_DEFINITION_SHAPE('','SHAPE FOR ANJIANMAO.',#840);
#842=SHAPE_DEFINITION_REPRESENTATION(#841,#833);
ENDSEC;
END-ISO-10303-21;
